<svg width="95" height="39" viewBox="0 0 95 39" fill="none" xmlns="http://www.w3.org/2000/svg">
    <g clip-path="url(#clip0_163_90)">
        <rect x="5.14265" width="33.4738" height="33.4561" rx="10" transform="rotate(8.84221 5.14265 0)" fill="#23BB86"
              fill-opacity="0.47"/>
        <rect x="4.13045" y="4.15308" width="30" height="30" rx="5" fill="#23BB86"/>
        <rect x="11.1304" y="11.1531" width="16" height="16" rx="5" fill="white"/>
        <g clip-path="url(#clip1_163_90)">
            <path d="M20.9763 22.2154C20.7094 22.2154 20.3345 22.1189 19.7732 21.8053C19.0905 21.4225 18.5625 21.0691 17.8836 20.3919C17.229 19.7377 16.9104 19.3141 16.4646 18.5029C15.9609 17.5868 16.0468 17.1067 16.1427 16.9015C16.257 16.6562 16.4258 16.5095 16.6438 16.3639C16.7677 16.2827 16.8988 16.2132 17.0354 16.1561C17.0491 16.1502 17.0618 16.1446 17.0731 16.1395C17.1408 16.109 17.2433 16.063 17.3732 16.1122C17.4599 16.1447 17.5373 16.2113 17.6584 16.3309C17.9068 16.5759 18.2463 17.1216 18.3715 17.3896C18.4556 17.5702 18.5113 17.6894 18.5114 17.8231C18.5114 17.9796 18.4327 18.1004 18.3371 18.2306C18.3192 18.2551 18.3014 18.2785 18.2842 18.3012C18.1801 18.4379 18.1573 18.4774 18.1723 18.548C18.2028 18.6897 18.4302 19.1118 18.8038 19.4846C19.1775 19.8575 19.5874 20.0705 19.7297 20.1008C19.8033 20.1165 19.8436 20.0928 19.9847 19.985C20.0049 19.9696 20.0257 19.9536 20.0474 19.9376C20.1932 19.8292 20.3083 19.7525 20.4611 19.7525H20.462C20.595 19.7525 20.7089 19.8102 20.8976 19.9053C21.1436 20.0295 21.7057 20.3646 21.9522 20.6132C22.0721 20.7341 22.139 20.8112 22.1716 20.8978C22.2209 21.028 22.1745 21.1302 22.1443 21.1985C22.1392 21.2099 22.1336 21.2223 22.1277 21.2361C22.0702 21.3725 22.0002 21.5033 21.9187 21.6269C21.7734 21.8443 21.6261 22.0126 21.3803 22.127C21.2541 22.1867 21.1159 22.2169 20.9763 22.2154Z"
                  fill="#23BB86"/>
        </g>
        <path d="M52.4257 15.8656L49.994 23.1019H48.2889L51.4764 14.5707H52.5663L52.4257 15.8656ZM54.4589 23.1019L52.0155 15.8656L51.869 14.5707H52.9647L56.1698 23.1019H54.4589ZM54.3475 19.932V21.2035H49.7714V19.932H54.3475ZM62.4628 21.8363V23.1019H58.1737V21.8363H62.4628ZM58.66 14.5707V23.1019H57.0487V14.5707H58.66ZM70.0624 18.6195V19.059C70.0624 19.7035 69.9764 20.2836 69.8046 20.7992C69.6327 21.3109 69.3885 21.7465 69.0721 22.1058C68.7557 22.4652 68.3788 22.7406 67.9413 22.932C67.5038 23.1234 67.0175 23.2191 66.4823 23.2191C65.955 23.2191 65.4706 23.1234 65.0292 22.932C64.5917 22.7406 64.2128 22.4652 63.8925 22.1058C63.5721 21.7465 63.3241 21.3109 63.1483 20.7992C62.9725 20.2836 62.8846 19.7035 62.8846 19.059V18.6195C62.8846 17.9711 62.9725 17.391 63.1483 16.8793C63.3241 16.3676 63.5702 15.932 63.8866 15.5726C64.203 15.2094 64.58 14.932 65.0175 14.7406C65.4589 14.5492 65.9432 14.4535 66.4706 14.4535C67.0057 14.4535 67.4921 14.5492 67.9296 14.7406C68.3671 14.932 68.744 15.2094 69.0604 15.5726C69.3807 15.932 69.6268 16.3676 69.7987 16.8793C69.9745 17.391 70.0624 17.9711 70.0624 18.6195ZM68.4335 19.059V18.6078C68.4335 18.1429 68.3905 17.7347 68.3046 17.3832C68.2186 17.0277 68.0917 16.7289 67.9237 16.4867C67.7557 16.2445 67.5487 16.0629 67.3026 15.9418C67.0565 15.8168 66.7792 15.7543 66.4706 15.7543C66.1581 15.7543 65.8807 15.8168 65.6385 15.9418C65.4003 16.0629 65.1971 16.2445 65.0292 16.4867C64.8612 16.7289 64.7323 17.0277 64.6425 17.3832C64.5565 17.7347 64.5135 18.1429 64.5135 18.6078V19.059C64.5135 19.5199 64.5565 19.9281 64.6425 20.2836C64.7323 20.639 64.8612 20.9398 65.0292 21.1859C65.201 21.4281 65.4081 21.6117 65.6503 21.7367C65.8925 21.8617 66.1698 21.9242 66.4823 21.9242C66.7948 21.9242 67.0721 21.8617 67.3143 21.7367C67.5565 21.6117 67.7596 21.4281 67.9237 21.1859C68.0917 20.9398 68.2186 20.639 68.3046 20.2836C68.3905 19.9281 68.4335 19.5199 68.4335 19.059ZM75.5995 14.5707V24.684H74.621V14.5707H75.5995ZM85.994 21.8832V23.1019H80.2167V22.059L82.9882 19.0648C83.2772 18.7367 83.5057 18.4515 83.6737 18.2094C83.8417 17.9672 83.9608 17.7484 84.0311 17.5531C84.1053 17.3539 84.1425 17.1644 84.1425 16.9847C84.1425 16.723 84.0956 16.4945 84.0018 16.2992C83.9081 16.1 83.7714 15.9457 83.5917 15.8363C83.4159 15.7269 83.1991 15.6722 82.9413 15.6722C82.6561 15.6722 82.412 15.7386 82.2089 15.8715C82.0096 16.0004 81.8573 16.1801 81.7518 16.4105C81.6503 16.641 81.5995 16.9047 81.5995 17.2015H80.0468C80.0468 16.6976 80.1639 16.2386 80.3983 15.8246C80.6327 15.4066 80.9686 15.0726 81.4061 14.8226C81.8436 14.5726 82.3632 14.4476 82.9647 14.4476C83.5507 14.4476 84.0468 14.5453 84.453 14.7406C84.8593 14.932 85.1678 15.2054 85.3788 15.5609C85.5897 15.9164 85.6952 16.3402 85.6952 16.8324C85.6952 17.1058 85.6503 17.3754 85.5604 17.641C85.4706 17.9066 85.3436 18.1703 85.1796 18.432C85.0194 18.6898 84.828 18.9515 84.6053 19.2172C84.3827 19.4828 84.1346 19.7543 83.8612 20.0316L82.1971 21.8832H85.994ZM92.996 19.9906V21.2094H86.8495L86.785 20.2719L90.4003 14.5707H91.6366L90.3007 16.8383L88.3612 19.9906H92.996ZM91.9823 14.5707V23.1019H90.4296V14.5707H91.9823Z"
              fill="#23BB86"/>
    </g>
    <defs>
        <clipPath id="clip0_163_90">
            <rect width="94.2186" height="38.2038" fill="white"/>
        </clipPath>
        <clipPath id="clip1_163_90">
            <rect width="7" height="7" fill="white" transform="translate(15.6304 15.6531)"/>
        </clipPath>
    </defs>
</svg>
