<svg width="185" height="79" viewBox="0 0 185 79" fill="none" xmlns="http://www.w3.org/2000/svg">
    <g clip-path="url(#clip0_118_269)">
        <rect x="10.5794" width="68.8196" height="68.8251" rx="15" transform="rotate(8.84221 10.5794 0)" fill="#23BB86"
              fill-opacity="0.47"/>
        <rect x="7.29031" y="7.29102" width="64" height="64" rx="15" fill="#23BB86"/>
        <rect x="22.2903" y="21.291" width="34" height="36" rx="10" fill="white"/>
        <path d="M44.5642 48.0407C43.8017 48.0407 42.7306 47.7649 41.1267 46.8688C39.1763 45.775 37.6677 44.7653 35.7279 42.8305C33.8575 40.9614 32.9474 39.7512 31.6736 37.4332C30.2345 34.816 30.4798 33.4442 30.754 32.8578C31.0806 32.1571 31.5626 31.7379 32.1857 31.3219C32.5396 31.09 32.9141 30.8913 33.3044 30.7282C33.3435 30.7114 33.3798 30.6953 33.4122 30.6809C33.6056 30.5938 33.8986 30.4621 34.2697 30.6028C34.5173 30.6957 34.7384 30.886 35.0845 31.2278C35.7943 31.9278 36.7642 33.4867 37.122 34.2524C37.3622 34.7684 37.5212 35.109 37.5216 35.491C37.5216 35.9383 37.2966 36.2832 37.0236 36.6555C36.9724 36.7254 36.9216 36.7922 36.8724 36.8571C36.5751 37.2477 36.5099 37.3606 36.5529 37.5621C36.64 37.9672 37.2896 39.1731 38.3572 40.2383C39.4247 41.3035 40.5958 41.9121 41.0025 41.9989C41.2126 42.0438 41.3279 41.9758 41.731 41.668C41.7888 41.6239 41.8482 41.5782 41.9103 41.5325C42.3267 41.2227 42.6556 41.0035 43.0923 41.0035H43.0947C43.4747 41.0035 43.8001 41.1684 44.3392 41.4403C45.0423 41.795 46.6482 42.7524 47.3525 43.4629C47.695 43.8082 47.8861 44.0285 47.9794 44.2758C48.12 44.6481 47.9876 44.9399 47.9013 45.1352C47.8868 45.1676 47.8708 45.2032 47.854 45.2426C47.6896 45.6323 47.4897 46.006 47.2568 46.359C46.8415 46.9801 46.4208 47.461 45.7185 47.7879C45.3578 47.9585 44.9631 48.0449 44.5642 48.0407Z"
              fill="#23BB86"/>
        <path d="M101.995 32.8202L97.1318 47.2928H93.7217L100.097 30.2303H102.276L101.995 32.8202ZM106.062 47.2928L101.175 32.8202L100.882 30.2303H103.073L109.483 47.2928H106.062ZM105.839 40.953V43.496H96.6865V40.953H105.839ZM122.069 44.7616V47.2928H113.491V44.7616H122.069ZM114.464 30.2303V47.2928H111.241V30.2303H114.464ZM137.269 38.328V39.2069C137.269 40.496 137.097 41.6561 136.753 42.6874C136.409 43.7108 135.921 44.5819 135.288 45.3007C134.655 46.0194 133.901 46.5702 133.026 46.953C132.151 47.3358 131.179 47.5272 130.108 47.5272C129.054 47.5272 128.085 47.3358 127.202 46.953C126.327 46.5702 125.569 46.0194 124.929 45.3007C124.288 44.5819 123.792 43.7108 123.44 42.6874C123.089 41.6561 122.913 40.496 122.913 39.2069V38.328C122.913 37.0311 123.089 35.871 123.44 34.8475C123.792 33.8241 124.284 32.953 124.917 32.2343C125.55 31.5077 126.304 30.953 127.179 30.5702C128.062 30.1874 129.03 29.996 130.085 29.996C131.155 29.996 132.128 30.1874 133.003 30.5702C133.878 30.953 134.632 31.5077 135.265 32.2343C135.905 32.953 136.397 33.8241 136.741 34.8475C137.093 35.871 137.269 37.0311 137.269 38.328ZM134.011 39.2069V38.3046C134.011 37.3749 133.925 36.5585 133.753 35.8553C133.581 35.1444 133.327 34.5468 132.991 34.0624C132.655 33.578 132.241 33.2147 131.749 32.9725C131.257 32.7225 130.702 32.5975 130.085 32.5975C129.46 32.5975 128.905 32.7225 128.421 32.9725C127.944 33.2147 127.538 33.578 127.202 34.0624C126.866 34.5468 126.608 35.1444 126.429 35.8553C126.257 36.5585 126.171 37.3749 126.171 38.3046V39.2069C126.171 40.1288 126.257 40.9452 126.429 41.6561C126.608 42.3671 126.866 42.9686 127.202 43.4608C127.546 43.9452 127.96 44.3124 128.444 44.5624C128.929 44.8124 129.483 44.9374 130.108 44.9374C130.733 44.9374 131.288 44.8124 131.772 44.5624C132.257 44.3124 132.663 43.9452 132.991 43.4608C133.327 42.9686 133.581 42.3671 133.753 41.6561C133.925 40.9452 134.011 40.1288 134.011 39.2069ZM148.343 30.2303V50.4569H146.386V30.2303H148.343ZM169.132 44.8553V47.2928H157.577V45.2069L163.12 39.2186C163.698 38.5624 164.155 37.9921 164.491 37.5077C164.827 37.0233 165.065 36.5858 165.206 36.1952C165.354 35.7968 165.429 35.4178 165.429 35.0585C165.429 34.535 165.335 34.078 165.147 33.6874C164.96 33.2889 164.687 32.9803 164.327 32.7616C163.976 32.5428 163.542 32.4335 163.026 32.4335C162.456 32.4335 161.968 32.5663 161.562 32.8319C161.163 33.0897 160.858 33.4491 160.647 33.91C160.444 34.371 160.343 34.8983 160.343 35.4921H157.237C157.237 34.4843 157.472 33.5663 157.94 32.7382C158.409 31.9022 159.081 31.2343 159.956 30.7343C160.831 30.2343 161.87 29.9843 163.073 29.9843C164.245 29.9843 165.237 30.1796 166.05 30.5702C166.862 30.953 167.479 31.4999 167.901 32.2108C168.323 32.9218 168.534 33.7694 168.534 34.7538C168.534 35.3007 168.444 35.8397 168.265 36.371C168.085 36.9022 167.831 37.4296 167.503 37.953C167.183 38.4686 166.8 38.9921 166.354 39.5233C165.909 40.0546 165.413 40.5975 164.866 41.1522L161.538 44.8553H169.132ZM183.136 41.0702V43.5077H170.843L170.714 41.6327L177.944 30.2303H180.417L177.745 34.7655L173.866 41.0702H183.136ZM181.108 30.2303V47.2928H178.003V30.2303H181.108Z"
              fill="#23BB86"/>
    </g>
    <defs>
        <clipPath id="clip0_118_269">
            <rect width="184.581" height="78.5857" fill="white"/>
        </clipPath>
    </defs>
</svg>
