<svg width="18" height="14" viewBox="0 0 18 14" fill="none" xmlns="http://www.w3.org/2000/svg">
    <g clip-path="url(#clip0_2314_751)">
        <path d="M-0.310303 9.38635H18.3104V14.1591H-0.310303V9.38635Z" fill="#1EB53A"/>
        <path d="M-0.310303 -0.159088H18.3104V4.61364H-0.310303V-0.159088Z" fill="#0099B5"/>
        <path d="M-0.310303 4.42273H18.3104V9.57727H-0.310303V4.42273Z" fill="#CE1126"/>
        <path d="M-0.310303 4.70911H18.3104V9.29092H-0.310303V4.70911Z" fill="white"/>
        <path d="M3.59993 3.85C4.52549 3.85 5.2758 3.08074 5.2758 2.13182C5.2758 1.18289 4.52549 0.413635 3.59993 0.413635C2.67438 0.413635 1.92407 1.18289 1.92407 2.13182C1.92407 3.08074 2.67438 3.85 3.59993 3.85Z"
              fill="white"/>
        <path d="M4.15877 3.85C5.08432 3.85 5.83463 3.08074 5.83463 2.13182C5.83463 1.18289 5.08432 0.413635 4.15877 0.413635C3.23322 0.413635 2.48291 1.18289 2.48291 2.13182C2.48291 3.08074 3.23322 3.85 4.15877 3.85Z"
              fill="#0099B5"/>
        <path d="M7.28631 3.16333L7.18018 3.48978L7.34218 3.54706" fill="white"/>
    </g>
    <defs>
        <clipPath id="clip0_2314_751">
            <rect width="18.6207" height="14.3182" fill="white" transform="translate(-0.310303 -0.159088)"/>
        </clipPath>
    </defs>
</svg>
